<?xml version="1.0" encoding="UTF-8"?>
<!DOCTYPE svg PUBLIC "-//W3C//DTD SVG 1.1//EN" "http://www.w3.org/Graphics/SVG/1.1/DTD/svg11.dtd">
<svg xmlns="http://www.w3.org/2000/svg" version="1.1" width="50px" height="128px" style="shape-rendering:geometricPrecision; text-rendering:geometricPrecision; image-rendering:optimizeQuality; fill-rule:evenodd; clip-rule:evenodd" xmlns:xlink="http://www.w3.org/1999/xlink">
<g><path style="opacity:1" fill="#f2f2f2" d="M 24.5,0.5 C 24.5,0.833333 24.5,1.16667 24.5,1.5C 24.1667,1.5 23.8333,1.5 23.5,1.5C 21.1667,1.5 18.8333,1.5 16.5,1.5C 15.5,1.5 14.5,1.5 13.5,1.5C 11.0504,1.29803 8.71702,1.63137 6.5,2.5C 5.5,1.16667 4.5,1.16667 3.5,2.5C 2.16667,3.5 2.16667,4.5 3.5,5.5C 4.39092,6.26133 5.05758,7.26133 5.5,8.5C 4.45293,10.0564 3.78627,11.7231 3.5,13.5C 2.20891,14.5417 2.20891,15.7083 3.5,17C 4.99762,17.5847 5.99762,17.0847 6.5,15.5C 7.22158,15.0825 7.72158,14.4158 8,13.5C 8.71115,15.3668 8.21115,16.8668 6.5,18C 7.57622,19.7261 7.74289,21.5594 7,23.5C 4.94412,22.4168 3.61079,20.7501 3,18.5C 2.36001,20.5433 2.86001,22.2099 4.5,23.5C 1.85204,25.1276 1.85204,26.7943 4.5,28.5C 5.5223,28.1445 6.18897,27.4778 6.5,26.5C 7.22158,26.0825 7.72158,25.4158 8,24.5C 8.16667,25 8.33333,25.5 8.5,26C 6.97516,28.0301 5.64182,30.1967 4.5,32.5C 3.74917,31.624 3.24917,30.624 3,29.5C 2.36001,31.5433 2.86001,33.2099 4.5,34.5C 2.7274,35.3143 2.2274,36.6476 3,38.5C 4.14547,39.6843 5.31213,39.6843 6.5,38.5C 5.16667,41.1667 5.16667,43.8333 6.5,46.5C 4.49093,45.0003 3.1576,45.5003 2.5,48C 3.1576,50.4997 4.49093,50.9997 6.5,49.5C 6.6107,50.3366 6.94404,51.3366 7.5,52.5C 8.68884,53.4287 10.0222,53.762 11.5,53.5C 8.63771,54.6813 5.63771,54.6813 2.5,53.5C 2.16667,52.5 1.5,51.8333 0.5,51.5C 0.5,34.5 0.5,17.5 0.5,0.5C 8.5,0.5 16.5,0.5 24.5,0.5 Z"/></g>
<g><path style="opacity:1" fill="#504d4e" d="M 13.5,1.5 C 14.5,1.5 15.5,1.5 16.5,1.5C 16.6068,3.37857 16.1068,3.7119 15,2.5C 14.2828,3.0442 13.7828,3.71087 13.5,4.5C 12.375,3.65225 12.375,2.65225 13.5,1.5 Z"/></g>
<g><path style="opacity:1" fill="#4b4949" d="M 6.5,2.5 C 6.5,3.5 6.5,4.5 6.5,5.5C 5.5,5.5 4.5,5.5 3.5,5.5C 2.16667,4.5 2.16667,3.5 3.5,2.5C 4.5,1.16667 5.5,1.16667 6.5,2.5 Z"/></g>
<g><path style="opacity:1" fill="#cdcccc" d="M 3.5,2.5 C 5.33702,2.63945 5.67036,3.30612 4.5,4.5C 3.70245,4.04311 3.36912,3.37644 3.5,2.5 Z"/></g>
<g><path style="opacity:1" fill="#565354" d="M 36.5,1.5 C 36.5,1.83333 36.5,2.16667 36.5,2.5C 37.915,5.75218 36.915,6.75218 33.5,5.5C 32.0464,2.60014 33.0464,1.26681 36.5,1.5 Z"/></g>
<g><path style="opacity:1" fill="#d8d8d7" d="M 36.5,2.5 C 36.3605,4.33702 35.6939,4.67036 34.5,3.5C 34.9569,2.70245 35.6236,2.36912 36.5,2.5 Z"/></g>
<g><path style="opacity:1" fill="#8d8d8f" d="M 36.5,2.5 C 36.5,2.16667 36.5,1.83333 36.5,1.5C 38.5,1.5 40.5,1.5 42.5,1.5C 41.1965,4.38824 42.1965,6.22158 45.5,7C 44.1667,8.33333 44.1667,9.66667 45.5,11C 44.6195,11.7083 43.9528,12.5416 43.5,13.5C 42.596,14.209 42.2627,15.209 42.5,16.5C 41.8826,16.3893 41.3826,16.056 41,15.5C 40.5804,19.1914 40.0804,22.8581 39.5,26.5C 37.5337,25.7455 37.2004,24.5788 38.5,23C 37.255,22.2086 35.9217,21.7086 34.5,21.5C 32.3523,21.6106 32.019,20.944 33.5,19.5C 32.9747,18.8076 32.3081,18.3076 31.5,18C 32.8333,17.6667 34.1667,17.3333 35.5,17C 36.4506,16.2825 36.6172,15.4491 36,14.5C 34.8904,16.0368 33.3904,16.7035 31.5,16.5C 31.3347,12.8183 31.5014,9.15159 32,5.5C 32.69,6.73834 33.19,6.73834 33.5,5.5C 36.915,6.75218 37.915,5.75218 36.5,2.5 Z"/></g>
<g><path style="opacity:1" fill="#b0b1b3" d="M 24.5,1.5 C 24.5,1.16667 24.5,0.833333 24.5,0.5C 32.1667,0.5 39.8333,0.5 47.5,0.5C 46.0813,1.45115 44.4147,1.78448 42.5,1.5C 40.5,1.5 38.5,1.5 36.5,1.5C 33.0464,1.26681 32.0464,2.60014 33.5,5.5C 33.19,6.73834 32.69,6.73834 32,5.5C 31.5014,9.15159 31.3347,12.8183 31.5,16.5C 30.0413,16.4326 28.7079,16.7659 27.5,17.5C 27.1205,16.8669 26.7871,16.2003 26.5,15.5C 24.2592,16.1286 22.2592,17.1286 20.5,18.5C 18.4999,13.2969 17.6666,7.96358 18,2.5C 17.3848,4.11613 16.3848,5.44946 15,6.5C 14.2828,5.9558 13.7828,5.28913 13.5,4.5C 13.7828,3.71087 14.2828,3.0442 15,2.5C 16.1068,3.7119 16.6068,3.37857 16.5,1.5C 18.8333,1.5 21.1667,1.5 23.5,1.5C 22.176,3.55803 22.676,5.2247 25,6.5C 28.5071,4.23451 28.3404,2.56784 24.5,1.5 Z"/></g>
<g><path style="opacity:1" fill="#6c696a" d="M 23.5,1.5 C 23.8333,1.5 24.1667,1.5 24.5,1.5C 28.3404,2.56784 28.5071,4.23451 25,6.5C 22.676,5.2247 22.176,3.55803 23.5,1.5 Z"/></g>
<g><path style="opacity:1" fill="#6b6b6d" d="M 47.5,0.5 C 48.4849,4.63441 48.8182,8.96775 48.5,13.5C 47.7515,14.531 47.0848,15.6976 46.5,17C 47.6168,20.0731 47.7835,23.2397 47,26.5C 44.5723,24.0259 44.0723,24.5259 45.5,28C 43.7627,28.6123 42.7627,27.9457 42.5,26C 43.1007,24.395 44.1007,23.0616 45.5,22C 44.1667,20.6667 44.1667,19.3333 45.5,18C 44.4734,17.4867 43.4734,16.9867 42.5,16.5C 42.2627,15.209 42.596,14.209 43.5,13.5C 43.9528,12.5416 44.6195,11.7083 45.5,11C 44.1667,9.66667 44.1667,8.33333 45.5,7C 42.1965,6.22158 41.1965,4.38824 42.5,1.5C 44.4147,1.78448 46.0813,1.45115 47.5,0.5 Z"/></g>
<g><path style="opacity:1" fill="#d9d8d8" d="M 43.5,13.5 C 45.337,13.6395 45.6704,14.3061 44.5,15.5C 43.7025,15.0431 43.3691,14.3764 43.5,13.5 Z"/></g>
<g><path style="opacity:0.909" fill="#4d4d4d" d="M -0.5,-0.5 C 15.5,-0.5 31.5,-0.5 47.5,-0.5C 47.5,-0.166667 47.5,0.166667 47.5,0.5C 39.8333,0.5 32.1667,0.5 24.5,0.5C 16.5,0.5 8.5,0.5 0.5,0.5C 0.5,17.5 0.5,34.5 0.5,51.5C 0.166667,51.5 -0.166667,51.5 -0.5,51.5C -0.5,34.1667 -0.5,16.8333 -0.5,-0.5 Z"/></g>
<g><path style="opacity:1" fill="#565454" d="M 3.5,13.5 C 4.09549,16.1125 4.92883,16.1125 6,13.5C 6.46434,14.0944 6.63101,14.7611 6.5,15.5C 5.99762,17.0847 4.99762,17.5847 3.5,17C 2.20891,15.7083 2.20891,14.5417 3.5,13.5 Z"/></g>
<g><path style="opacity:1" fill="#275664" d="M 27.5,17.5 C 27.9175,18.2216 28.5842,18.7216 29.5,19C 27.5194,20.6312 25.5194,20.4646 23.5,18.5C 22.2054,19.0983 20.8721,19.5983 19.5,20C 25.6763,19.7108 27.6763,22.3775 25.5,28C 19.2677,30.1626 18.9344,29.1626 24.5,25C 21.633,24.1993 18.9664,24.3659 16.5,25.5C 14.8008,25.6602 13.1341,25.4935 11.5,25C 10.0439,24.5774 9.54392,23.7441 10,22.5C 13.2513,20.6401 16.7513,19.3067 20.5,18.5C 22.2592,17.1286 24.2592,16.1286 26.5,15.5C 26.7871,16.2003 27.1205,16.8669 27.5,17.5 Z"/></g>
<g><path style="opacity:1" fill="#203a45" d="M 34.5,21.5 C 34.9925,23.8185 35.9925,25.8185 37.5,27.5C 37.9195,29.0936 38.5862,30.5936 39.5,32C 38.2193,36.0554 36.5527,39.8888 34.5,43.5C 32.3598,46.165 29.8598,48.4983 27,50.5C 25.8549,53.8872 26.6883,54.8872 29.5,53.5C 24.644,56.4948 20.144,55.8282 16,51.5C 15.6012,51.7284 15.4346,52.0618 15.5,52.5C 15.1667,52.5 14.8333,52.5 14.5,52.5C 14.3284,51.5084 14.6618,50.8417 15.5,50.5C 16.5,50.5 17.5,50.5 18.5,50.5C 18.281,49.325 18.6143,48.325 19.5,47.5C 22.7363,46.3662 23.7363,44.3662 22.5,41.5C 23.1667,41.5 23.8333,41.5 24.5,41.5C 26.2452,40.1937 28.2452,39.1937 30.5,38.5C 30.2907,37.914 29.9574,37.414 29.5,37C 30.9436,35.2932 32.277,33.4599 33.5,31.5C 32.675,30.6143 31.675,30.281 30.5,30.5C 30.5852,29.0047 29.9185,28.0047 28.5,27.5C 23.7031,29.3992 19.3698,32.0658 15.5,35.5C 14.7025,35.0431 14.3691,34.3764 14.5,33.5C 15.3636,32.3117 16.3636,31.1451 17.5,30C 16.8333,29.6667 16.1667,29.3333 15.5,29C 17.3115,27.9593 17.6448,26.7927 16.5,25.5C 18.9664,24.3659 21.633,24.1993 24.5,25C 18.9344,29.1626 19.2677,30.1626 25.5,28C 27.6763,22.3775 25.6763,19.7108 19.5,20C 20.8721,19.5983 22.2054,19.0983 23.5,18.5C 25.5194,20.4646 27.5194,20.6312 29.5,19C 28.5842,18.7216 27.9175,18.2216 27.5,17.5C 28.7079,16.7659 30.0413,16.4326 31.5,16.5C 33.3904,16.7035 34.8904,16.0368 36,14.5C 36.6172,15.4491 36.4506,16.2825 35.5,17C 34.1667,17.3333 32.8333,17.6667 31.5,18C 32.3081,18.3076 32.9747,18.8076 33.5,19.5C 32.019,20.944 32.3523,21.6106 34.5,21.5 Z"/></g>
<g><path style="opacity:1" fill="#362d26" d="M 34.5,21.5 C 35.9217,21.7086 37.255,22.2086 38.5,23C 37.2004,24.5788 37.5337,25.7455 39.5,26.5C 39.1583,27.3382 38.4916,27.6716 37.5,27.5C 35.9925,25.8185 34.9925,23.8185 34.5,21.5 Z"/></g>
<g><path style="opacity:1" fill="#dfdfe0" d="M 13.5,1.5 C 12.375,2.65225 12.375,3.65225 13.5,4.5C 13.7828,5.28913 14.2828,5.9558 15,6.5C 16.3848,5.44946 17.3848,4.11613 18,2.5C 17.6666,7.96358 18.4999,13.2969 20.5,18.5C 16.7513,19.3067 13.2513,20.6401 10,22.5C 9.54392,23.7441 10.0439,24.5774 11.5,25C 13.1341,25.4935 14.8008,25.6602 16.5,25.5C 17.6448,26.7927 17.3115,27.9593 15.5,29C 16.1667,29.3333 16.8333,29.6667 17.5,30C 16.3636,31.1451 15.3636,32.3117 14.5,33.5C 13.7784,33.9175 13.2784,34.5842 13,35.5C 12.8512,41.5922 12.6845,47.5922 12.5,53.5C 12.1667,53.5 11.8333,53.5 11.5,53.5C 10.0222,53.762 8.68884,53.4287 7.5,52.5C 6.94404,51.3366 6.6107,50.3366 6.5,49.5C 6.5,48.5 6.5,47.5 6.5,46.5C 5.16667,43.8333 5.16667,41.1667 6.5,38.5C 6.77089,36.6203 6.10422,35.287 4.5,34.5C 2.86001,33.2099 2.36001,31.5433 3,29.5C 3.24917,30.624 3.74917,31.624 4.5,32.5C 5.64182,30.1967 6.97516,28.0301 8.5,26C 8.33333,25.5 8.16667,25 8,24.5C 7.72158,25.4158 7.22158,26.0825 6.5,26.5C 6.57298,24.9731 5.90632,23.9731 4.5,23.5C 2.86001,22.2099 2.36001,20.5433 3,18.5C 3.61079,20.7501 4.94412,22.4168 7,23.5C 7.74289,21.5594 7.57622,19.7261 6.5,18C 8.21115,16.8668 8.71115,15.3668 8,13.5C 7.72158,14.4158 7.22158,15.0825 6.5,15.5C 6.63101,14.7611 6.46434,14.0944 6,13.5C 4.92883,16.1125 4.09549,16.1125 3.5,13.5C 3.78627,11.7231 4.45293,10.0564 5.5,8.5C 5.05758,7.26133 4.39092,6.26133 3.5,5.5C 4.5,5.5 5.5,5.5 6.5,5.5C 6.5,4.5 6.5,3.5 6.5,2.5C 8.71702,1.63137 11.0504,1.29803 13.5,1.5 Z"/></g>
<g><path style="opacity:1" fill="#696767" d="M 4.5,23.5 C 5.90632,23.9731 6.57298,24.9731 6.5,26.5C 6.18897,27.4778 5.5223,28.1445 4.5,28.5C 1.85204,26.7943 1.85204,25.1276 4.5,23.5 Z"/></g>
<g><path style="opacity:0.921" fill="#232324" d="M 47.5,0.5 C 47.5,0.166667 47.5,-0.166667 47.5,-0.5C 48.1667,-0.5 48.8333,-0.5 49.5,-0.5C 49.5,18.1667 49.5,36.8333 49.5,55.5C 49.1667,55.5 48.8333,55.5 48.5,55.5C 48.6399,53.8762 47.9733,52.7096 46.5,52C 47,51.5 47.5,51 48,50.5C 48.4999,38.1712 48.6665,25.8378 48.5,13.5C 48.8182,8.96775 48.4849,4.63441 47.5,0.5 Z"/></g>
<g><path style="opacity:1" fill="#656363" d="M 4.5,34.5 C 6.10422,35.287 6.77089,36.6203 6.5,38.5C 5.31213,39.6843 4.14547,39.6843 3,38.5C 2.2274,36.6476 2.7274,35.3143 4.5,34.5 Z"/></g>
<g><path style="opacity:1" fill="#6e8a94" d="M 30.5,30.5 C 31.675,30.281 32.675,30.6143 33.5,31.5C 32.277,33.4599 30.9436,35.2932 29.5,37C 29.9574,37.414 30.2907,37.914 30.5,38.5C 28.2452,39.1937 26.2452,40.1937 24.5,41.5C 23.5527,39.2422 24.5527,38.0755 27.5,38C 27.1667,37.6667 26.8333,37.3333 26.5,37C 28.9229,35.4293 30.2562,33.2626 30.5,30.5 Z"/></g>
<g><path style="opacity:1" fill="#c3c6c8" d="M 30.5,30.5 C 30.2562,33.2626 28.9229,35.4293 26.5,37C 26.8333,37.3333 27.1667,37.6667 27.5,38C 24.5527,38.0755 23.5527,39.2422 24.5,41.5C 23.8333,41.5 23.1667,41.5 22.5,41.5C 20.1417,43.8723 17.4751,46.039 14.5,48C 15.2524,48.6708 15.5858,49.5041 15.5,50.5C 14.6618,50.8417 14.3284,51.5084 14.5,52.5C 13.8333,52.8333 13.1667,53.1667 12.5,53.5C 12.6845,47.5922 12.8512,41.5922 13,35.5C 13.2784,34.5842 13.7784,33.9175 14.5,33.5C 14.3691,34.3764 14.7025,35.0431 15.5,35.5C 19.3698,32.0658 23.7031,29.3992 28.5,27.5C 29.9185,28.0047 30.5852,29.0047 30.5,30.5 Z"/></g>
<g><path style="opacity:1" fill="#7e7e80" d="M 48.5,13.5 C 48.6665,25.8378 48.4999,38.1712 48,50.5C 47.5,51 47,51.5 46.5,52C 47.9733,52.7096 48.6399,53.8762 48.5,55.5C 48.1667,55.5 47.8333,55.5 47.5,55.5C 47.3036,53.3544 46.3036,53.1878 44.5,55C 41.8333,55.6667 39.1667,55.6667 36.5,55C 34.5743,54.5776 33.5743,53.4109 33.5,51.5C 34.4822,52.1408 35.4822,52.8075 36.5,53.5C 37.8333,49.8333 37.8333,46.1667 36.5,42.5C 35.8165,42.8627 35.1499,43.1961 34.5,43.5C 36.5527,39.8888 38.2193,36.0554 39.5,32C 38.5862,30.5936 37.9195,29.0936 37.5,27.5C 38.4916,27.6716 39.1583,27.3382 39.5,26.5C 40.0804,22.8581 40.5804,19.1914 41,15.5C 41.3826,16.056 41.8826,16.3893 42.5,16.5C 43.4734,16.9867 44.4734,17.4867 45.5,18C 44.1667,19.3333 44.1667,20.6667 45.5,22C 44.1007,23.0616 43.1007,24.395 42.5,26C 42.7627,27.9457 43.7627,28.6123 45.5,28C 44.0723,24.5259 44.5723,24.0259 47,26.5C 47.7835,23.2397 47.6168,20.0731 46.5,17C 47.0848,15.6976 47.7515,14.531 48.5,13.5 Z"/></g>
<g><path style="opacity:1" fill="#9a9b9e" d="M 33.5,51.5 C 32.1667,52.1667 30.8333,52.8333 29.5,53.5C 26.6883,54.8872 25.8549,53.8872 27,50.5C 29.8598,48.4983 32.3598,46.165 34.5,43.5C 35.1499,43.1961 35.8165,42.8627 36.5,42.5C 37.8333,46.1667 37.8333,49.8333 36.5,53.5C 35.4822,52.8075 34.4822,52.1408 33.5,51.5 Z"/></g>
<g><path style="opacity:1" fill="#656364" d="M 6.5,46.5 C 6.5,47.5 6.5,48.5 6.5,49.5C 4.49093,50.9997 3.1576,50.4997 2.5,48C 3.1576,45.5003 4.49093,45.0003 6.5,46.5 Z"/></g>
<g><path style="opacity:1" fill="#567580" d="M 22.5,41.5 C 23.7363,44.3662 22.7363,46.3662 19.5,47.5C 18.6143,48.325 18.281,49.325 18.5,50.5C 17.5,50.5 16.5,50.5 15.5,50.5C 15.5858,49.5041 15.2524,48.6708 14.5,48C 17.4751,46.039 20.1417,43.8723 22.5,41.5 Z"/></g>
<g><path style="opacity:1" fill="#546070" d="M 14.5,52.5 C 14.8333,52.5 15.1667,52.5 15.5,52.5C 13.6682,54.8942 11.1682,55.8942 8,55.5C 6.5,55.3333 5,55.1667 3.5,55C 2.94404,54.6174 2.61071,54.1174 2.5,53.5C 5.63771,54.6813 8.63771,54.6813 11.5,53.5C 11.8333,53.5 12.1667,53.5 12.5,53.5C 13.1667,53.1667 13.8333,52.8333 14.5,52.5 Z"/></g>
<g><path style="opacity:1" fill="#60a0f4" d="M 29.5,53.5 C 30.8333,52.8333 32.1667,52.1667 33.5,51.5C 33.5743,53.4109 34.5743,54.5776 36.5,55C 39.1667,55.6667 41.8333,55.6667 44.5,55C 46.3036,53.1878 47.3036,53.3544 47.5,55.5C 47.4955,59.5341 47.1621,63.5341 46.5,67.5C 43.6769,66.0077 42.0102,63.6743 41.5,60.5C 38.134,68.0741 33.134,69.4075 26.5,64.5C 25.5,59.1667 24.5,59.1667 23.5,64.5C 19.2405,68.4101 14.9071,68.4101 10.5,64.5C 10.2914,63.0783 9.79142,61.745 9,60.5C 8.08901,63.5755 6.25568,65.9089 3.5,67.5C 1.80807,62.7473 1.47473,58.0806 2.5,53.5C 2.61071,54.1174 2.94404,54.6174 3.5,55C 5,55.1667 6.5,55.3333 8,55.5C 11.1682,55.8942 13.6682,54.8942 15.5,52.5C 15.4346,52.0618 15.6012,51.7284 16,51.5C 20.144,55.8282 24.644,56.4948 29.5,53.5 Z"/></g>
<g><path style="opacity:1" fill="#756659" d="M 3.5,57.5 C 4.83333,57.5 6.16667,57.5 7.5,57.5C 7.5,58.5 7.5,59.5 7.5,60.5C 6.16667,60.5 4.83333,60.5 3.5,60.5C 3.5,59.5 3.5,58.5 3.5,57.5 Z"/></g>
<g><path style="opacity:1" fill="#807267" d="M 41.5,60.5 C 41.5,59.5 41.5,58.5 41.5,57.5C 42.8333,57.5 44.1667,57.5 45.5,57.5C 45.5,58.5 45.5,59.5 45.5,60.5C 44.1667,60.5 42.8333,60.5 41.5,60.5 Z"/></g>
<g><path style="opacity:1" fill="#21304c" d="M 26.5,64.5 C 25.5,63.1667 24.5,63.1667 23.5,64.5C 24.5,59.1667 25.5,59.1667 26.5,64.5 Z"/></g>
<g><path style="opacity:1" fill="#1f2943" d="M 0.5,51.5 C 1.5,51.8333 2.16667,52.5 2.5,53.5C 1.47473,58.0806 1.80807,62.7473 3.5,67.5C 6.25568,65.9089 8.08901,63.5755 9,60.5C 9.79142,61.745 10.2914,63.0783 10.5,64.5C 9.88258,64.3893 9.38258,64.056 9,63.5C 8.53476,64.9308 7.70143,66.0975 6.5,67C 7.4158,67.2784 8.08247,67.7784 8.5,68.5C 7.5,68.5 6.5,68.5 5.5,68.5C 5.5,69.5 5.5,70.5 5.5,71.5C 4.73209,70.7375 4.23209,69.7375 4,68.5C 4.1652,75.1654 4.6652,81.8321 5.5,88.5C 2.31232,76.5062 0.645657,64.1729 0.5,51.5 Z"/></g>
<g><path style="opacity:1" fill="#0f56a5" d="M 41.5,60.5 C 42.0102,63.6743 43.6769,66.0077 46.5,67.5C 45.5,74.8332 44.5,82.1666 43.5,89.5C 43.7678,91.099 43.4345,92.4324 42.5,93.5C 40.5683,97.1953 39.235,101.195 38.5,105.5C 37.0687,106.78 36.4021,108.447 36.5,110.5C 36.3404,112.153 35.6737,113.486 34.5,114.5C 33.0937,114.973 32.427,115.973 32.5,117.5C 31.0937,117.973 30.427,118.973 30.5,120.5C 30.5,121.167 30.1667,121.5 29.5,121.5C 27.5372,122.96 25.7038,124.627 24,126.5C 22.2962,124.627 20.4628,122.96 18.5,121.5C 18.573,119.973 17.9063,118.973 16.5,118.5C 15.6618,118.158 15.3284,117.492 15.5,116.5C 14.6743,113.515 13.341,110.849 11.5,108.5C 10.3381,103.852 9.17142,99.1857 8,94.5C 7.61742,93.944 7.11742,93.6107 6.5,93.5C 5.69929,91.9582 5.36596,90.2915 5.5,88.5C 4.6652,81.8321 4.1652,75.1654 4,68.5C 4.23209,69.7375 4.73209,70.7375 5.5,71.5C 6.5,71.5 7.5,71.5 8.5,71.5C 8.5,70.5 8.5,69.5 8.5,68.5C 8.08247,67.7784 7.4158,67.2784 6.5,67C 7.70143,66.0975 8.53476,64.9308 9,63.5C 9.38258,64.056 9.88258,64.3893 10.5,64.5C 14.9071,68.4101 19.2405,68.4101 23.5,64.5C 24.5,63.1667 25.5,63.1667 26.5,64.5C 33.134,69.4075 38.134,68.0741 41.5,60.5 Z"/></g>
<g><path style="opacity:1" fill="#8a786d" d="M 40.5,68.5 C 41.8333,68.5 43.1667,68.5 44.5,68.5C 44.5,69.5 44.5,70.5 44.5,71.5C 43.1667,71.5 41.8333,71.5 40.5,71.5C 40.5,70.5 40.5,69.5 40.5,68.5 Z"/></g>
<g><path style="opacity:1" fill="#bda795" d="M 8.5,68.5 C 8.5,69.5 8.5,70.5 8.5,71.5C 7.5,71.5 6.5,71.5 5.5,71.5C 5.5,70.5 5.5,69.5 5.5,68.5C 6.5,68.5 7.5,68.5 8.5,68.5 Z"/></g>
<g><path style="opacity:1" fill="#070d18" d="M 28.5,76.5 C 31.0514,75.0515 33.3848,75.3848 35.5,77.5C 34.4179,77.7486 33.0846,77.9152 31.5,78C 30.2909,81.0254 30.7909,83.8587 33,86.5C 34.6822,91.433 33.1822,94.7663 28.5,96.5C 26.9707,96.4712 25.804,95.8045 25,94.5C 22.3635,89.0474 21.6968,83.3807 23,77.5C 21.886,79.9698 21.386,82.6364 21.5,85.5C 21.6449,88.8673 21.9782,92.2006 22.5,95.5C 20.5542,95.8072 18.8875,95.8072 17.5,95.5C 19.0464,88.8693 18.713,82.3693 16.5,76C 20.6888,75.1881 24.6888,75.3547 28.5,76.5 Z"/></g>
<g><path style="opacity:1" fill="#8b7970" d="M 6.5,79.5 C 7.5,79.5 8.5,79.5 9.5,79.5C 9.5,80.8333 9.5,82.1667 9.5,83.5C 8.5,83.5 7.5,83.5 6.5,83.5C 6.5,82.1667 6.5,80.8333 6.5,79.5 Z"/></g>
<g><path style="opacity:1" fill="#bfa895" d="M 39.5,79.5 C 40.5,79.5 41.5,79.5 42.5,79.5C 42.5,80.5 42.5,81.5 42.5,82.5C 41.5,82.5 40.5,82.5 39.5,82.5C 39.5,81.5 39.5,80.5 39.5,79.5 Z"/></g>
<g><path style="opacity:0.541" fill="#1b191f" d="M 47.5,55.5 C 47.8333,55.5 48.1667,55.5 48.5,55.5C 48.3082,67.1797 46.6416,78.513 43.5,89.5C 44.5,82.1666 45.5,74.8332 46.5,67.5C 47.1621,63.5341 47.4955,59.5341 47.5,55.5 Z"/></g>
<g><path style="opacity:1" fill="#0759ab" d="M 28.5,76.5 C 29.7644,81.7221 30.431,87.0555 30.5,92.5C 26.181,93.1463 24.181,91.313 24.5,87C 24.7829,82.9682 26.1162,79.4682 28.5,76.5 Z"/></g>
<g><path style="opacity:1" fill="#63544c" d="M 11.5,93.5 C 10.8333,90.8333 10.1667,90.8333 9.5,93.5C 8.59603,92.791 8.26269,91.791 8.5,90.5C 9.83333,90.5 11.1667,90.5 12.5,90.5C 12.7373,91.791 12.404,92.791 11.5,93.5 Z"/></g>
<g><path style="opacity:1" fill="#63544c" d="M 39.5,93.5 C 38.8333,90.8333 38.1667,90.8333 37.5,93.5C 36.596,92.791 36.2627,91.791 36.5,90.5C 37.8333,90.5 39.1667,90.5 40.5,90.5C 40.7373,91.791 40.404,92.791 39.5,93.5 Z"/></g>
<g><path style="opacity:1" fill="#e7d7c9" d="M 11.5,93.5 C 10.8333,93.5 10.1667,93.5 9.5,93.5C 10.1667,90.8333 10.8333,90.8333 11.5,93.5 Z"/></g>
<g><path style="opacity:1" fill="#e6d7c9" d="M 39.5,93.5 C 38.8333,93.5 38.1667,93.5 37.5,93.5C 38.1667,90.8333 38.8333,90.8333 39.5,93.5 Z"/></g>
<g><path style="opacity:0.016" fill="#1d181e" d="M 42.5,93.5 C 42.1394,97.9155 40.8061,101.915 38.5,105.5C 39.235,101.195 40.5683,97.1953 42.5,93.5 Z"/></g>
<g><path style="opacity:0.024" fill="#1f1c26" d="M 6.5,93.5 C 7.11742,93.6107 7.61742,93.944 8,94.5C 9.17142,99.1857 10.3381,103.852 11.5,108.5C 8.86256,103.921 7.19589,98.9213 6.5,93.5 Z"/></g>
<g><path style="opacity:1" fill="#917f72" d="M 12.5,101.5 C 13.5,101.5 14.5,101.5 15.5,101.5C 15.5,102.833 15.5,104.167 15.5,105.5C 14.5,105.5 13.5,105.5 12.5,105.5C 12.5,104.167 12.5,102.833 12.5,101.5 Z"/></g>
<g><path style="opacity:1" fill="#8e7c6f" d="M 33.5,101.5 C 34.5,101.5 35.5,101.5 36.5,101.5C 36.5,102.833 36.5,104.167 36.5,105.5C 35.5,105.5 34.5,105.5 33.5,105.5C 33.5,104.167 33.5,102.833 33.5,101.5 Z"/></g>
<g><path style="opacity:0.612" fill="#1d181c" d="M 38.5,105.5 C 38.5979,107.553 37.9313,109.22 36.5,110.5C 36.4021,108.447 37.0687,106.78 38.5,105.5 Z"/></g>
<g><path style="opacity:1" fill="#bea998" d="M 16.5,111.5 C 17.5,111.5 18.5,111.5 19.5,111.5C 19.5,112.5 19.5,113.5 19.5,114.5C 18.5,114.5 17.5,114.5 16.5,114.5C 16.5,113.5 16.5,112.5 16.5,111.5 Z"/></g>
<g><path style="opacity:1" fill="#837266" d="M 28.5,111.5 C 29.8333,111.5 31.1667,111.5 32.5,111.5C 32.5,112.5 32.5,113.5 32.5,114.5C 31.1667,114.5 29.8333,114.5 28.5,114.5C 28.5,113.5 28.5,112.5 28.5,111.5 Z"/></g>
<g><path style="opacity:0.525" fill="#1b171b" d="M 11.5,108.5 C 13.341,110.849 14.6743,113.515 15.5,116.5C 13.127,114.421 11.7936,111.754 11.5,108.5 Z"/></g>
<g><path style="opacity:0.055" fill="#1b1214" d="M 34.5,114.5 C 34.573,116.027 33.9063,117.027 32.5,117.5C 32.427,115.973 33.0937,114.973 34.5,114.5 Z"/></g>
<g><path style="opacity:0.118" fill="#1b151a" d="M 32.5,117.5 C 32.573,119.027 31.9063,120.027 30.5,120.5C 30.427,118.973 31.0937,117.973 32.5,117.5 Z"/></g>
<g><path style="opacity:0.086" fill="#1b1418" d="M 16.5,118.5 C 17.9063,118.973 18.573,119.973 18.5,121.5C 17.0937,121.027 16.427,120.027 16.5,118.5 Z"/></g>
<g><path style="opacity:1" fill="#968579" d="M 22.5,118.5 C 23.5,118.5 24.5,118.5 25.5,118.5C 25.5,119.833 25.5,121.167 25.5,122.5C 24.5,122.5 23.5,122.5 22.5,122.5C 22.5,121.167 22.5,119.833 22.5,118.5 Z"/></g>
<g><path style="opacity:0.204" fill="#1d171d" d="M 18.5,121.5 C 20.4628,122.96 22.2962,124.627 24,126.5C 25.7038,124.627 27.5372,122.96 29.5,121.5C 28.5849,123.754 27.2516,125.754 25.5,127.5C 24.5,127.5 23.5,127.5 22.5,127.5C 20.7484,125.754 19.4151,123.754 18.5,121.5 Z"/></g>
</svg>
